<?xml version="1.0" ?><!DOCTYPE svg  PUBLIC '-//W3C//DTD SVG 1.1//EN'  'http://www.w3.org/Graphics/SVG/1.1/DTD/svg11.dtd'><svg height="8.26772in" style="shape-rendering:geometricPrecision; text-rendering:geometricPrecision; image-rendering:optimizeQuality; fill-rule:evenodd; clip-rule:evenodd" version="1.1" viewBox="0 0 826772 826772" width="8.26772in" xml:space="preserve" xmlns="http://www.w3.org/2000/svg" xmlns:xlink="http://www.w3.org/1999/xlink"><defs><style type="text/css">
   <![CDATA[
    .fil0 {fill:#DD4B39}
    .fil2 {fill:#2E373C;fill-rule:nonzero}
    .fil1 {fill:white;fill-rule:nonzero}
   ]]>
  </style></defs><g id="Layer_x0020_1"><polygon class="fil0" points="0,0 826772,0 826772,826772 0,826772 "/><path class="fil1" d="M656687 407148c0,130424 -106538,236137 -237978,236137 -41722,0 -80926,-10665 -115037,-29378l-131763 41869 42950 -126706c-21669,-35599 -34142,-77322 -34142,-121922 0,-130421 106538,-236151 237992,-236151 131440,0 237978,105730 237978,236151zm-237978 -198548l0 0c-110334,0 -200083,89070 -200083,198533 0,43436 14156,83673 38102,116395l-24997 73718 76885 -24432c31592,20748 69438,32836 110078,32836 110320,0 200084,-89055 200084,-198533 17,-109447 -89749,-198517 -200069,-198517zm120161 252924l0 0c-1471,-2407 -5347,-3862 -11181,-6753 -5834,-2894 -34532,-16904 -39865,-18827 -5350,-1922 -9243,-2892 -13139,2893 -3876,5800 -15060,18825 -18470,22687 -3409,3864 -6802,4348 -12635,1454 -5817,-2891 -24628,-9000 -46910,-28730 -17339,-15335 -29056,-34274 -32448,-40076 -3412,-5785 -357,-8920 2551,-11794 2636,-2602 5834,-6773 8759,-10134 2926,-3392 3894,-5800 5834,-9663 1956,-3862 971,-7238 -486,-10148 -1454,-2892 -13137,-31381 -17984,-42966 -4863,-11587 -9712,-9649 -13122,-9649 -3409,0 -7288,-485 -11181,-485 -3896,0 -10213,1455 -15562,7240 -5349,5802 -20409,19795 -20409,48269 0,28489 20894,56008 23819,59869 2909,3847 40349,64200 99637,87390 59322,23173 59322,15447 70019,14462 10681,-953 34500,-13993 39381,-27518 4847,-13509 4847,-25111 3392,-27521z"/><path class="fil2" d="M656687 407148c0,130424 -106538,236137 -237978,236137 -41722,0 -80926,-10665 -115037,-29378l-131763 41869 42950 -126706c-21669,-35599 -34142,-77322 -34142,-121922 0,-130421 106538,-236151 237992,-236151 131440,0 237978,105730 237978,236151zm-237978 -198548l0 0c-110334,0 -200083,89070 -200083,198533 0,43436 14156,83673 38102,116395l-24997 73718 76885 -24432c31592,20748 69438,32836 110078,32836 110320,0 200084,-89055 200084,-198533 17,-109447 -89749,-198517 -200069,-198517zm120161 252924l0 0c-1471,-2407 -5347,-3862 -11181,-6753 -5834,-2894 -34532,-16904 -39865,-18827 -5350,-1922 -9243,-2892 -13139,2893 -3876,5800 -15060,18825 -18470,22687 -3409,3864 -6802,4348 -12635,1454 -5817,-2891 -24628,-9000 -46910,-28730 -17339,-15335 -29056,-34274 -32448,-40076 -3412,-5785 -357,-8920 2551,-11794 2636,-2602 5834,-6773 8759,-10134 2926,-3392 3894,-5800 5834,-9663 1956,-3862 971,-7238 -486,-10148 -1454,-2892 -13137,-31381 -17984,-42966 -4863,-11587 -9712,-9649 -13122,-9649 -3409,0 -7288,-485 -11181,-485 -3896,0 -10213,1455 -15562,7240 -5349,5802 -20409,19795 -20409,48269 0,28489 20894,56008 23819,59869 2909,3847 40349,64200 99637,87390 59322,23173 59322,15447 70019,14462 10681,-953 34500,-13993 39381,-27518 4847,-13509 4847,-25111 3392,-27521z"/><path class="fil1" d="M640351 407148c0,130424 -106538,236137 -237978,236137 -41723,0 -80927,-10665 -115038,-29378l-131763 41869 42951 -126706c-21670,-35599 -34143,-77322 -34143,-121922 0,-130421 106538,-236151 237993,-236151 131440,0 237978,105730 237978,236151zm-237978 -198548l0 0c-110335,0 -200084,89070 -200084,198533 0,43436 14156,83673 38103,116395l-24998 73718 76885 -24432c31592,20748 69438,32836 110079,32836 110320,0 200083,-89055 200083,-198533 17,-109447 -89749,-198517 -200068,-198517zm120161 252924l0 0c-1471,-2407 -5348,-3862 -11182,-6753 -5834,-2894 -34532,-16904 -39865,-18827 -5350,-1922 -9243,-2892 -13139,2893 -3876,5800 -15060,18825 -18469,22687 -3410,3864 -6802,4348 -12636,1454 -5817,-2891 -24627,-9000 -46910,-28730 -17339,-15335 -29055,-34274 -32448,-40076 -3411,-5785 -357,-8920 2551,-11794 2636,-2602 5834,-6773 8760,-10134 2925,-3392 3893,-5800 5834,-9663 1955,-3862 970,-7238 -487,-10148 -1454,-2892 -13136,-31381 -17983,-42966 -4864,-11587 -9713,-9649 -13122,-9649 -3410,0 -7288,-485 -11182,-485 -3895,0 -10213,1455 -15561,7240 -5350,5802 -20410,19795 -20410,48269 0,28489 20894,56008 23819,59869 2909,3847 40349,64200 99637,87390 59322,23173 59322,15447 70020,14462 10680,-953 34500,-13993 39380,-27518 4847,-13509 4847,-25111 3393,-27521z"/></g></svg>